<svg width="169" height="119" xmlns="http://www.w3.org/2000/svg">
  <defs/>
  <title>
    Car
  </title>
  <defs>
    <linearGradient x1="17.251%" y1="50%" x2="100%" y2="50%" id="b">
      <stop stop-color="#CFD7F9" offset="0%"/>
      <stop stop-color="#FFF" offset="100%"/>
    </linearGradient>
    <linearGradient x1="70.638%" y1="28.653%" x2="35.774%" y2="69.075%" id="c">
      <stop stop-color="#258EFF" offset="0%"/>
      <stop stop-color="#0068ef" offset="100%"/>
    </linearGradient>
    <linearGradient x1="0%" y1="50%" x2="100%" y2="50%" id="d">
      <stop stop-color="#A8B8F4" offset="0%"/>
      <stop stop-color="#FFF" offset="100%"/>
    </linearGradient>
    <linearGradient x1="14.989%" y1="50%" x2="100%" y2="50%" id="e">
      <stop stop-color="#CED7F9" offset="0%"/>
      <stop stop-color="#FFF" offset="100%"/>
    </linearGradient>
    <linearGradient x1="16.022%" y1="34.863%" x2="100%" y2="68.265%" id="f">
      <stop stop-color="#D8DFFA" offset="0%"/>
      <stop stop-color="#EFF4FD" offset="100%"/>
    </linearGradient>
    <linearGradient x1="100%" y1="70.087%" x2="18.87%" y2="32.759%" id="g">
      <stop stop-color="#0068ef" offset="0%"/>
      <stop stop-color="#288FFF" offset="46.271%"/>
      <stop stop-color="#0068ef" offset="100%"/>
    </linearGradient>
    <linearGradient x1="76.6%" y1="20.09%" x2="24.222%" y2="83.789%" id="h">
      <stop stop-color="#2F93FF" offset="0%"/>
      <stop stop-color="#0068ef" offset="100%"/>
    </linearGradient>
    <linearGradient x1="76.603%" y1="20.09%" x2="24.22%" y2="83.789%" id="i">
      <stop stop-color="#2F93FF" offset="0%"/>
      <stop stop-color="#0068ef" offset="100%"/>
    </linearGradient>
    <linearGradient x1="15.568%" y1="50%" x2="100%" y2="50%" id="j">
      <stop stop-color="#CED7F9" offset="0%"/>
      <stop stop-color="#FFF" offset="100%"/>
    </linearGradient>
    <filter x="-12.7%" y="-18.7%" width="125.5%" height="137.4%" filterUnits="objectBoundingBox" id="a">
      <feOffset dx="-1" dy="4" in="SourceAlpha" result="shadowOffsetOuter1"/>
      <feGaussianBlur stdDeviation="3" in="shadowOffsetOuter1" result="shadowBlurOuter1"/>
      <feColorMatrix values="0 0 0 0 0.667331475 0 0 0 0 0.727001637 0 0 0 0 0.947322237 0 0 0 1 0" in="shadowBlurOuter1" result="shadowMatrixOuter1"/>
      <feMerge>
        <feMergeNode in="shadowMatrixOuter1"/>
        <feMergeNode in="SourceGraphic"/>
      </feMerge>
    </filter>
  </defs>
  <g filter="url(#a)" transform="translate(7 2)" fill="none">
    <path d="M115.611 38.562l4.634-3.345a1.034 1.034 0 011.638.84v.62a7.342 7.342 0 01-.908 3.537l-1.582 2.877-3.782-4.529z" fill="#48486A"/>
    <path fill="#37407D" d="M12.693 27.379l-1.524-.882L.283 32.819l1.524.881z"/>
    <path fill="#363650" d="M32.808 62.32l6.03-3.269-4.243-.894z"/>
    <path fill="#05105D" d="M100.566 101.69l6.03-3.269-4.243-.894z"/>
    <path fill="url(#b)" d="M114.456 88.224l40.694-22.838v16.537L114.456 104.3z"/>
    <path fill="url(#c)" d="M83.625 65.386l36.81-21.155-15.692-20.07-35.505 19.045z"/>
    <path fill="url(#d)" d="M120.815 44.072l34.335 21.314-40.694 22.838-30.83-22.838z"/>
    <path d="M62.668 7.01L52.265 1.135a8.158 8.158 0 00-8.09.039L4.145 24.603l15.98 7.374L62.668 7.01z" fill="url(#e)"/>
    <path d="M26.38 40.44c-5.045-2.917-9.172-.53-9.172 5.307 0 5.836 4.127 12.999 9.171 15.917 5.045 2.918 9.171.53 9.171-5.306s-4.126-12.999-9.17-15.917z" fill="#363650"/>
    <path d="M26.38 43.894c-3.403-1.969-6.188-.358-6.188 3.58 0 3.936 2.785 8.768 6.187 10.737 3.403 1.968 6.187.358 6.187-3.58 0-3.937-2.784-8.769-6.187-10.737z" fill="#363650"/>
    <path d="M26.38 44.694c-3.023-1.748-5.496-.318-5.496 3.179s2.473 7.79 5.495 9.537c3.022 1.749 5.495.318 5.495-3.179s-2.473-7.788-5.495-9.537z" fill="#555579"/>
    <path d="M94.168 79.81c-5.044-2.917-9.171-.53-9.171 5.307 0 5.836 4.127 12.999 9.171 15.917 5.044 2.918 9.17.53 9.17-5.306s-4.126-13-9.17-15.917z" fill="#363650"/>
    <path d="M17.219 45.894c0-6.86 5.71-8.947 11.902-3.238 2.523 2.326 4.367 5.318 5.454 8.576 1.124 3.37 1.171 6.031.578 8.014l49.625 28.39.282-2.582c.1-5.826 4.12-8.21 9.156-5.297 5.035 2.913 9.155 10.064 9.155 15.89 0 .925-.114 1.753-.309 2.496l11.394 6.156V88.224l-30.83-22.838-4.03-9.182a40.303 40.303 0 00-16.72-18.692L37.289 22.707a3.154 3.154 0 00-2.991-.09l-16.059 8.049-10.855-6.28c-1.943-1.124-4.372.28-4.372 2.529v9.935a6.871 6.871 0 003.452 5.963l11.155 6.389a14.89 14.89 0 01-.4-3.308z" fill="url(#f)"/>
    <path d="M38.46 57.897c.594-1.982.547-4.644-.577-8.014-1.087-3.258-3.473-6.01-5.996-8.336-3.706-3.418-7.23-4.024-9.47-2.503 2.211-.72 5.224.162 8.364 3.057 2.523 2.327 4.367 5.318 5.454 8.576 1.124 3.37 1.17 6.032.578 8.014l42.513 24.291-40.865-25.085z" fill="#FFF"/>
    <path d="M80.71 65.81l-3.328-7.388A40.302 40.302 0 0060.664 39.73L38.618 26.976a2.462 2.462 0 00-2.917.335l-6.742 7.1a1.25 1.25 0 00.285 1.946L80.71 65.81z" fill="url(#g)"/>
    <path d="M94.168 83.264c-3.403-1.968-6.187-.358-6.187 3.58 0 3.936 2.784 8.768 6.187 10.737 3.403 1.969 6.186.358 6.186-3.58 0-3.937-2.783-8.769-6.186-10.737z" fill="#363650"/>
    <ellipse fill="#555579" transform="rotate(-29.998 94.168 90.422)" cx="94.168" cy="90.422" rx="4.489" ry="7.783"/>
    <path fill="#2C2C4C" d="M104.871 93.278l10.886 6.33v7.335l-10.886-6.33z"/>
    <path fill="#2E2E4C" d="M156.246 75.984l-40.49 23.625v7.334l40.49-23.625z"/>
    <path fill="#48486A" d="M44.856 30.593v14.69l5.08 2.938-2.54-16.159z"/>
    <path fill="#6D6D88" d="M104.871 93.287l1.524-.881 10.886 6.321-1.524.882z"/>
    <path fill="#25253C" d="M.283 32.8l10.886 6.33v7.334L.283 40.134z"/>
    <path fill="#5C629E" d="M3.011 26.913l8.158 4.743v4.388L3.01 31.3z"/>
    <path fill="#6D6D88" d="M12.693 38.237l-1.524.893v7.334l1.524-.893z"/>
    <path fill="#6D6D88" d="M.283 32.809l1.524-.882 10.886 6.321-1.524.882zm155.963 43.185l-1.524-.882-40.489 23.615 1.524.882z"/>
    <path fill="url(#h)" d="M117.28 89.489l9.439-5.46.026 5.46-9.464 5.476z"/>
    <path fill="url(#i)" d="M144.12 74.102l9.437-5.46.027 5.46-9.464 5.475z"/>
    <path fill="#48486A" d="M127.657 83.597l15.696-9.118.027 5.46-15.723 9.134zM78.15 60.126l-4.904 1.413a1.633 1.633 0 00-1.133 1.556c0 1.05.802 1.927 1.847 2.017l6.75.58-2.56-5.566z"/>
    <path d="M103.262 54.1l4.214-2.422L76.29 39.423l-4.388 2.354zM80.109 37.375l31.035 12.196 9.29-5.34-.237-.304L90.01 32.064z" fill="#4CA2FF"/>
    <path d="M105.073 24.353L71.32 4.504a4.178 4.178 0 00-4.18-.031l-31.38 17.81L70.032 42.79l35.041-18.436z" fill="url(#j)"/>
    <path d="M104.743 24.162s7.631 4.218 16.448 20.603l-2.514 1.113s-6.764-15.318-15.878-20.8l1.944-.916z" fill="#BECCEA"/>
  </g>
</svg>
