<svg width="153" height="123" xmlns="http://www.w3.org/2000/svg">
  <defs/>
  <title>
    Plane
  </title>
  <defs>
    <linearGradient x1="50%" y1="71.574%" x2="35.31%" y2="37.103%" id="b">
      <stop stop-color="#CED7F9" offset="0%"/>
      <stop stop-color="#FFF" offset="100%"/>
    </linearGradient>
    <linearGradient x1="23.236%" y1="60.422%" x2="34.559%" y2="44.84%" id="c">
      <stop stop-color="#CED7F9" offset="0%"/>
      <stop stop-color="#FFF" offset="100%"/>
      <stop stop-color="#FFF" offset="100%"/>
    </linearGradient>
    <linearGradient x1="31.408%" y1="78.495%" x2="16.727%" y2="57.194%" id="d">
      <stop stop-color="#CED7F9" offset="0%"/>
      <stop stop-color="#FFF" offset="100%"/>
    </linearGradient>
    <linearGradient x1="12.812%" y1="53.698%" x2="24.912%" y2="41.836%" id="e">
      <stop stop-color="#CED7F9" offset="0%"/>
      <stop stop-color="#FFF" offset="100%"/>
    </linearGradient>
    <filter x="-7.1%" y="-8.9%" width="114.3%" height="117.8%" filterUnits="objectBoundingBox" id="a">
      <feOffset dy="2" in="SourceAlpha" result="shadowOffsetOuter1"/>
      <feGaussianBlur stdDeviation="1.5" in="shadowOffsetOuter1" result="shadowBlurOuter1"/>
      <feColorMatrix values="0 0 0 0 0.682352941 0 0 0 0 0.741176471 0 0 0 0 0.960784314 0 0 0 1 0" in="shadowBlurOuter1" result="shadowMatrixOuter1"/>
      <feMerge>
        <feMergeNode in="shadowMatrixOuter1"/>
        <feMergeNode in="SourceGraphic"/>
      </feMerge>
    </filter>
  </defs>
  <g filter="url(#a)" transform="matrix(-1 0 0 1 150 1)" fill="none">
    <path fill="url(#b)" d="M117.816 27.979l9.914-5.284-19.848-11.12-5.126 2.965z"/>
    <path fill="#D3DAED" d="M78.097 71.392l-42.73-19.186L8.186 32.23l-4.192 1.1v1.436l17.794 29.911 28.118 23.026z"/>
    <path fill="url(#c)" d="M78.097 69.956L35.367 50.77 8.186 30.793l-4.192 2.536 17.794 29.91 28.118 23.027z"/>
    <path d="M61.879 56.788L22.509 79.5A55.1 55.1 0 003.011 98.53l-2.439 3.998c-1.412 2.314.131 5.303 2.832 5.486l3.213.218a51.953 51.953 0 0029.536-6.868L91.91 69.107c14.472-8.373 21.266-16.904 30.827-28.994a26.763 26.763 0 004.32-13.157l.458-8.224-65.636 38.056z" fill="url(#d)"/>
    <path fill="url(#e)" d="M49.906 86.266l28.19-16.31 30.43 23.12 35.55 20.415-6.942 3.76-50.885-15.703z"/>
    <path fill="#FFF" d="M117.816 27.979l24.288 9.065 4.848-2.866-19.222-11.483z"/>
    <path fill="#F6F8FB" d="M127.543 22.658V.054L122.16 3.17l-4.385 25.14z"/>
    <path d="M5.237 95.19l1.838 1.108a17.045 17.045 0 0010.193 2.21l2.414-.236a2.683 2.683 0 002.42-2.672 2.683 2.683 0 00-2.77-2.684l-2.312.077c-2.969.1-5.908-.553-8.554-1.883a55.204 55.204 0 00-3.229 4.08zm24.853-2.967c0 .893-.632 1.99-1.404 2.437-.773.447-1.406.08-1.408-.815-.003-.894.63-1.991 1.403-2.436.775-.446 1.408-.08 1.408.814zm4.67-4.445c-.775.445-1.407 1.541-1.405 2.436.003.895.636 1.261 1.408.814.772-.446 1.404-1.542 1.404-2.436 0-.893-.633-1.26-1.408-.814zm6.077-3.631c-.775.445-1.407 1.542-1.404 2.436.002.895.636 1.261 1.408.814.772-.446 1.404-1.543 1.404-2.436s-.634-1.26-1.408-.814zm6.077-3.632c-.774.446-1.406 1.542-1.403 2.437.002.895.635 1.261 1.407.814.773-.446 1.404-1.543 1.404-2.436 0-.894-.633-1.26-1.408-.815zm6.078-3.196c-.775.446-1.406 1.542-1.404 2.437.002.894.636 1.26 1.407.815.773-.447 1.405-1.544 1.405-2.437 0-.894-.634-1.26-1.408-.815zm6.078-3.63c-.775.445-1.407 1.541-1.405 2.436.002.894.636 1.261 1.408.814.772-.446 1.404-1.543 1.404-2.436 0-.894-.634-1.26-1.407-.814zm6.076-3.559c-.773.446-1.406 1.542-1.404 2.436.003.895.636 1.262 1.408.815.773-.447 1.404-1.544 1.404-2.437 0-.893-.633-1.26-1.408-.814zm5.98-3.213c-.774.446-1.405 1.542-1.403 2.436.002.895.636 1.262 1.407.815.772-.447 1.405-1.543 1.405-2.437 0-.893-.634-1.26-1.408-.814zm6.182-3.631c-.774.445-1.406 1.542-1.404 2.437.003.894.636 1.26 1.408.814.772-.447 1.404-1.544 1.404-2.436 0-.894-.634-1.26-1.408-.815zm6.078-3.63c-.775.444-1.407 1.54-1.404 2.435.002.895.636 1.261 1.408.814.772-.446 1.403-1.542 1.403-2.436 0-.893-.633-1.26-1.407-.814zm6.077-3.632c-.774.445-1.406 1.542-1.404 2.436.003.895.636 1.261 1.408.815.772-.447 1.404-1.543 1.404-2.437 0-.893-.633-1.26-1.408-.814zm6.078-3.631c-.775.445-1.406 1.541-1.404 2.437.002.894.636 1.26 1.408.814.772-.447 1.403-1.543 1.403-2.437 0-.893-.633-1.26-1.407-.814zm6.077-3.196c-.774.445-1.406 1.541-1.403 2.436 0 .895.635 1.261 1.407.815.772-.447 1.404-1.544 1.404-2.437 0-.893-.633-1.26-1.408-.814zm6.078-3.631c-.775.445-1.406 1.541-1.405 2.436.003.895.636 1.262 1.408.814.772-.446 1.404-1.543 1.404-2.436s-.633-1.26-1.407-.814z" fill="#0946BD"/>
  </g>
</svg>
