<svg width="124" height="133" xmlns="http://www.w3.org/2000/svg">
  <defs/>
  <title>
    Hotel
  </title>
  <defs>
    <linearGradient x1="19.843%" y1="74.187%" x2="66.939%" y2="36.453%" id="b">
      <stop stop-color="#C8D2F8" offset="0%"/>
      <stop stop-color="#DFE5FB" offset="100%"/>
    </linearGradient>
    <linearGradient x1="30.26%" y1="34.02%" x2="63.068%" y2="60.579%" id="c">
      <stop stop-color="#C8D2F8" offset="0%"/>
      <stop stop-color="#DFE5FB" offset="100%"/>
    </linearGradient>
    <linearGradient x1="100%" y1="40.265%" x2="-48.227%" y2="115.026%" id="d">
      <stop stop-color="#0947BF" offset="0%"/>
      <stop stop-color="#041F77" offset="100%"/>
    </linearGradient>
    <filter x="-10.2%" y="-9.4%" width="120.3%" height="118.9%" filterUnits="objectBoundingBox" id="a">
      <feOffset dy="3" in="SourceAlpha" result="shadowOffsetOuter1"/>
      <feGaussianBlur stdDeviation="1.5" in="shadowOffsetOuter1" result="shadowBlurOuter1"/>
      <feColorMatrix values="0 0 0 0 0.658823529 0 0 0 0 0.721568627 0 0 0 0 0.956862745 0 0 0 1 0" in="shadowBlurOuter1" result="shadowMatrixOuter1"/>
      <feMerge>
        <feMergeNode in="shadowMatrixOuter1"/>
        <feMergeNode in="SourceGraphic"/>
      </feMerge>
    </filter>
  </defs>
  <g filter="url(#a)" transform="translate(3)" fill="none">
    <path fill="#E9EDFC" d="M67.486.058l50.469 29.18-67.379 38.526-50.38-29.13z"/>
    <path fill="#BECAF7" d="M62.691 23.336l21.697 8.566v3.978L55.42 52.442 33.762 39.92v-3.98z"/>
    <path fill="#E9EDFC" d="M62.691 19.357l21.697 12.545L55.42 48.464 33.762 35.941z"/>
    <path fill="url(#b)" d="M117.955 29.237v58.36l-67.291 38.907-.088-58.74z"/>
    <path fill="url(#c)" d="M50.664 126.504L.196 97.324v-58.69l50.38 29.13z"/>
    <path fill="#A8B8F4" d="M113.265 41.252v9.726l-8.126 4.698V45.95zm-12.155 7.212v9.727l-8.126 4.698v-9.727zm-12.155 7.212v9.727l-8.125 4.698v-9.726zM76.8 62.889v9.726l-8.126 4.699v-9.727zm-12.155 7.212v9.727l-8.125 4.698v-9.727zm48.62-13.077v9.726l-8.126 4.699v-9.727zm-12.155 7.212v9.727l-8.126 4.698v-9.727zm-12.155 7.213v9.727l-8.125 4.697v-9.726zM76.8 78.661v9.726l-8.126 4.699v-9.727zm-12.155 7.212V95.6l-8.126 4.698v-9.726zm48.62-13.077v9.726l-8.126 4.7v-9.728zm-12.155 7.213v9.726l-8.126 4.698v-9.726zm-12.155 7.212v9.726l-8.125 4.699v-9.727zM76.8 94.433v9.727l-8.126 4.698v-9.727zm-12.155 7.213v9.726l-8.126 4.698v-9.726zM2.84 48.464v9.727l8.125 4.698v-9.727zm12.154 7.212v9.727l8.126 4.698v-9.726zm12.155 7.213v9.726l8.126 4.699v-9.727zm12.155 7.212v9.727l8.126 4.698v-9.727zM2.84 64.236v9.727l8.125 4.698v-9.727zm12.154 7.213v9.727l8.126 4.697v-9.726zm12.155 7.212v9.726l8.126 4.699v-9.727zm12.155 7.212V95.6l8.126 4.698v-9.726zM2.84 80.009v9.726l8.125 4.698v-9.726zm12.154 7.212v9.726l8.126 4.699v-9.727zm12.155 7.212v9.727l8.126 4.698v-9.727zm12.155 7.213v9.726l8.126 4.698v-9.726z"/>
    <path fill="url(#d)" d="M36.491 15.73L2.105 34.375.085 18.763 34.473.117z" transform="translate(57 28)"/>
    <path d="M66.113 45.744l1.05 8.115-1.353.734-.43-3.328-2.656 1.44.43 3.327-1.352.734-1.05-8.115 1.353-.734.414 3.2 2.655-1.44-.414-3.2zm3.573 6.313c-.534-.1-.98-.393-1.338-.881-.358-.489-.588-1.13-.691-1.927a6.42 6.42 0 01.135-2.374 6.24 6.24 0 01.95-2.122c.44-.627.963-1.105 1.57-1.434.606-.33 1.175-.443 1.707-.343.53.101.977.394 1.338.881.36.487.592 1.128.695 1.924a6.38 6.38 0 01-.139 2.377 6.342 6.342 0 01-.95 2.122c-.437.626-.96 1.103-1.566 1.432-.607.329-1.177.444-1.71.345zm2.396-2.782a3.71 3.71 0 00.537-1.278c.107-.48.129-.97.064-1.473-.065-.503-.202-.908-.412-1.216-.21-.308-.468-.497-.775-.566-.307-.07-.633-.01-.977.176a2.539 2.539 0 00-.893.838c-.25.371-.429.797-.536 1.277a4.22 4.22 0 00-.064 1.474c.065.502.202.907.411 1.216.21.308.468.497.775.566.307.069.633.01.978-.177a2.54 2.54 0 00.892-.837zm3.789-7.185l-1.87 1.014-.198-1.53 5.093-2.762.198 1.53-1.87 1.015.851 6.585-1.352.733zm9.132.483l.195 1.506-4.526 2.454-1.05-8.115 4.418-2.395.195 1.508-3.073 1.666.228 1.762 2.713-1.472.19 1.461-2.714 1.472.243 1.878zm.222-7.193l1.353-.733.852 6.585 2.93-1.59.198 1.53-4.283 2.323z" fill="#FFF"/>
  </g>
</svg>
